<?xml version="1.0" encoding="utf-8"?>
<!-- Generator: Adobe Illustrator 17.1.0, SVG Export Plug-In . SVG Version: 6.00 Build 0)  -->
<!DOCTYPE svg PUBLIC "-//W3C//DTD SVG 1.1//EN" "http://www.w3.org/Graphics/SVG/1.1/DTD/svg11.dtd">
<svg version="1.1" id="Слой_1" xmlns="http://www.w3.org/2000/svg" xmlns:xlink="http://www.w3.org/1999/xlink" x="0px" y="0px"
	 viewBox="0 0 48 48" enable-background="new 0 0 48 48" xml:space="preserve">
<path fill="#1A1B1A" d="M28.2,15.6c4.7,2.3,6.7,8,4.4,12.7c-1.6,3.1-4.7,5.1-8.3,5.4l-3.1,14.2c12.3,1.3,23.6-6.7,26.1-18.8
	c2.5-12.1-4.5-24-16.2-27.7L28.2,15.6z"/>
<path fill="#75AA60" d="M16.6,46.8l3.1-14.2c-4.7-2.4-6.7-8-4.3-12.9c1.6-3.1,4.7-5.1,8.1-5.2l3.1-14.2C14.3-1.1,3.1,7,0.6,19
	C-2.1,31.1,4.9,43,16.6,46.8L16.6,46.8z"/>
</svg>
