<?xml version="1.0" standalone="no"?>
<!DOCTYPE svg PUBLIC "-//W3C//DTD SVG 20010904//EN"
 "http://www.w3.org/TR/2001/REC-SVG-20010904/DTD/svg10.dtd">
<svg version="1.0" xmlns="http://www.w3.org/2000/svg"
 width="700.000000pt" height="700.000000pt" viewBox="0 0 700.000000 700.000000"
 preserveAspectRatio="xMidYMid meet">
<metadata>
Created by potrace 1.14, written by Peter Selinger 2001-2017
</metadata>
<g transform="translate(0.000000,700.000000) scale(0.100000,-0.100000)"
fill="#000000" stroke="none">
<path d="M3278 6975 c-1 -1 -46 -6 -98 -9 -52 -4 -106 -8 -120 -11 -14 -2 -43
-6 -65 -10 -49 -7 -149 -23 -190 -30 -157 -28 -516 -137 -665 -201 -337 -147
-615 -317 -899 -549 -263 -216 -543 -545 -734 -864 -248 -414 -415 -900 -473
-1376 -3 -22 -7 -53 -9 -70 -24 -160 -24 -639 -1 -760 2 -11 7 -49 11 -85 3
-36 18 -121 31 -190 163 -821 588 -1518 1254 -2057 232 -189 590 -393 895
-512 177 -69 204 -76 209 -59 5 16 76 343 82 378 3 14 11 50 19 80 8 30 16 66
18 80 3 14 24 113 47 220 23 107 43 201 45 210 2 8 10 45 19 81 8 37 17 78 20
90 6 35 83 390 106 489 11 47 25 112 31 145 7 33 14 65 15 70 1 6 10 44 19 85
31 137 35 121 -53 173 -325 189 -562 507 -656 882 -92 370 -16 784 205 1110
93 137 272 309 409 393 173 106 386 181 560 197 117 11 129 16 130 55 0 8 36
181 81 385 45 203 83 379 85 389 8 41 57 268 99 456 24 107 46 206 48 220 3
14 19 86 36 161 17 75 33 150 36 165 3 16 16 79 29 139 13 61 23 111 22 111
-12 12 -586 30 -598 19z"/>
<path d="M4482 6533 c-29 -142 -54 -267 -56 -278 -2 -11 -18 -87 -36 -170 -17
-82 -33 -161 -36 -175 -5 -28 -71 -350 -86 -420 -5 -25 -11 -57 -13 -73 -2
-15 -6 -31 -9 -35 -2 -4 -7 -26 -10 -48 -4 -22 -8 -49 -11 -59 -6 -31 -105
-517 -107 -534 -2 -9 23 -30 68 -55 151 -88 303 -217 400 -341 21 -27 42 -52
45 -55 14 -12 102 -166 132 -232 56 -121 88 -231 121 -413 8 -43 8 -248 1
-325 -9 -93 -50 -250 -92 -354 -124 -312 -387 -584 -713 -738 -135 -64 -331
-120 -470 -135 -30 -3 -58 -8 -62 -12 -6 -6 -74 -298 -84 -366 -3 -16 -9 -43
-14 -60 -5 -16 -11 -43 -13 -60 -3 -16 -9 -48 -15 -70 -6 -22 -14 -54 -16 -71
-3 -18 -33 -154 -66 -303 -33 -149 -73 -333 -90 -409 -16 -75 -48 -220 -70
-322 -22 -102 -43 -196 -45 -210 -7 -31 -25 -114 -36 -158 -6 -27 -4 -34 9
-40 41 -16 780 -5 834 13 7 2 31 6 53 9 81 10 123 18 250 46 443 98 882 291
1260 555 51 36 99 71 107 78 7 7 29 24 48 37 19 13 40 29 45 35 6 6 39 36 75
65 78 65 276 262 345 343 28 33 55 64 61 71 38 40 184 244 250 348 229 360
416 843 478 1228 3 19 8 44 10 55 2 12 7 48 11 80 4 33 9 69 11 80 19 102 27
588 11 735 -8 80 -10 93 -21 180 -69 540 -318 1137 -668 1601 -97 129 -121
157 -228 273 -208 224 -492 458 -723 595 -43 25 -92 54 -110 65 -160 94 -603
286 -662 286 -6 0 -33 -108 -63 -257z"/>
</g>
</svg>
