<svg width="677" height="234" xmlns="http://www.w3.org/2000/svg"><defs><radialGradient cx="47.803%" cy="83.642%" fx="47.803%" fy="83.642%" r="100.53%" gradientTransform="scale(1 .97293) rotate(-24.602 .531 .848)" id="b"><stop stop-color="#FFF" offset="0%"/><stop stop-color="#2D53CB" offset="100%"/></radialGradient><radialGradient cx="56.741%" cy="27.366%" fx="56.741%" fy="27.366%" r="191.676%" gradientTransform="matrix(.25236 .67452 -.23058 .73825 .487 -.311)" id="c"><stop stop-color="#FFF" offset="0%"/><stop stop-color="#2D53CB" offset="100%"/></radialGradient><linearGradient x1="54.605%" y1="60.983%" x2="124.391%" y2="60.983%" id="a"><stop stop-color="#A6B1CF" stop-opacity=".894" offset="0%"/><stop stop-color="#A6B1CF" stop-opacity=".4" offset="100%"/></linearGradient></defs><g fill="none" fill-rule="evenodd"><path d="M387.687 89c-7.552 12.667-18.994 25.667-34.327 39-7.87 6.843-22.703 21.975-45.324 39.267C293.733 178.2 264.388 197.111 220 224H8.5c60.15-33.028 99.657-54.17 118.518-63.429 11.144-5.47 23.507-8.173 30.849-11.571 12.039-5.572 49.793-22.866 115.133-39 20.997-5.185 59.226-12.185 114.687-21z" fill="url(#a)" opacity=".04" transform="translate(2 1)"/><path d="M414 23.46c0 17.54-8.91 43.197-28.364 70.123-30.129 41.702-75.886 77.049-169.492 133.239" stroke="url(#b)" stroke-width="3" opacity=".192" stroke-linecap="round" stroke-linejoin="round" transform="translate(2 1)"/><path d="M673.412.804C647.027 15.6 625.389 27 608.5 35c-25.334 12-63.403 23.875-115.579 37.063C445.173 84.133 404.84 86.827 385.636 89c-64.217 7.266-122.33 23.2-182.59 42.003-44.855 13.997-89.55 34.63-111.41 46.32C65.367 191.372 34.82 209.264 0 231" stroke="url(#c)" stroke-width="3" opacity=".192" stroke-linecap="round" transform="translate(2 1)"/></g></svg>