<svg width="2559" height="446" xmlns="http://www.w3.org/2000/svg"><defs><linearGradient x1="53.27%" y1="93.337%" x2="53.27%" y2="21.694%" id="a"><stop stop-color="#C8D2F1" offset="0%"/><stop stop-color="#FFF" offset="100%"/></linearGradient><linearGradient x1="26.806%" y1="88.612%" x2="21.083%" y2="0%" id="b"><stop stop-color="#C8D2F1" offset="0%"/><stop stop-color="#FFF" offset="100%"/></linearGradient><linearGradient x1="108.541%" y1="138.952%" x2="-26.898%" y2="95.272%" id="c"><stop stop-color="#A6B1CF" offset="0%"/><stop stop-color="#FFF" offset="100%"/></linearGradient><linearGradient x1="0%" y1="60.258%" x2="100%" y2="60.258%" id="d"><stop stop-color="#FFF" stop-opacity=".035" offset="0%"/><stop stop-color="#FFF" stop-opacity="0" offset="100%"/></linearGradient><linearGradient x1="100%" y1="50%" x2="0%" y2="50%" id="g"><stop stop-color="#FFF" offset="0%"/><stop stop-color="#FFF" stop-opacity="0" offset="100%"/></linearGradient><radialGradient cx="46.697%" cy="42.49%" fx="46.697%" fy="42.49%" r="151.275%" gradientTransform="scale(.34424 1) rotate(20.449 .912 2.89)" id="e"><stop stop-color="#292C2F" offset="0%"/><stop stop-color="#287FD6" stop-opacity="0" offset="100%"/></radialGradient><radialGradient cx="45.276%" cy="51.654%" fx="45.276%" fy="51.654%" r="131.898%" gradientTransform="matrix(.37423 .28422 -.11094 .95876 .34 -.107)" id="f"><stop stop-color="#303D47" offset="0%"/><stop stop-color="#39526C" stop-opacity=".819" offset="17.806%"/><stop stop-color="#4B94F6" stop-opacity="0" offset="100%"/></radialGradient></defs><g fill="none" fill-rule="evenodd"><path d="M2559 1c.176 65.05.176 199.717 0 404l-641 2.5c-19.883.333-38.063-.5-54.541-2.5-11.078-1.345-41.927-6.33-86.459-25-14.471-6.067-39.138-18.9-74-38.5-18.836-12.111-32.157-21.085-39.963-26.92-28.798-21.525-49.221-40.31-63.967-53.58-13.274-11.947-52.545-48.512-110.07-116.438-21.572-25.472-59.639-73.66-114.202-144.562C2062.724.587 2457.458.92 2559 1z" fill="url(#a)" opacity=".151" transform="translate(0 2)"/><path d="M2559 2.224v211.31c-98.712 34.31-268.242 98.966-508.591 193.966-48.185-.681-83.712-.681-106.583 0-117.507 3.5-169.574-28.765-187.407-37.5-21.63-10.595-59.078-29.713-88.787-52-11.198-8.4-27.12-19-30.531-23-3.412-4-13.737-20.995-20.101-30-30.392-43-71.613-119.694-123.2-181-19.983-23.749-43.026-51.712-66.8-84 157.835.064 1009 1.288 1132 2.224z" fill="url(#b)" opacity=".037" transform="translate(0 2)"/><path d="M2240 0c59.152 0 123.485.333 193 1-49.745 79.298-85.826 128.57-112 165-23.13 32.193-139.375 179.468-246 206.5-71 18-201.9 34-235 28.5-33.1-5.5-90.258-30.93-122-49.675-46.218-27.294-74.316-50.915-80.148-58.325-15.742-20-41.205-56.897-59.494-85.067C1532.582 137.425 1517.8 42.25 1500 1c113 0 359.667-.333 740-1z" fill="url(#c)" opacity=".06" transform="translate(0 2)"/><path fill="url(#d)" fill-rule="nonzero" d="M0 1h152v279H0z" transform="translate(0 2)"/><path d="M1375.252.555c19.355 25.687 40.237 52.99 62.531 81.445 125.881 160.674 286.445 329.143 475.556 326 93.194-1.549 521.35-4.462 645.661-.5" stroke="url(#e)" stroke-width="3" stroke-linecap="square" transform="translate(0 2)"/><path d="M1427.764.29c19.68 24.844 37.954 47.747 54.823 68.71 92.611 115.086 183.692 310.887 284.413 351 102.948 41 184.102 16.98 282-12.5 70.601-21.26 108.529-46.488 191.926-49.648 59.404-2.25 165.429 4.798 318.074 21.148" stroke="url(#f)" stroke-width="3" stroke-linecap="square" transform="translate(0 2)"/><path fill="url(#g)" fill-rule="nonzero" d="M2271 0h288v408h-288z" transform="translate(0 2)"/></g></svg>