<?xml version="1.0" encoding="utf-8"?>
<!-- Generator: Adobe Illustrator 17.1.0, SVG Export Plug-In . SVG Version: 6.00 Build 0)  -->
<!DOCTYPE svg PUBLIC "-//W3C//DTD SVG 1.1//EN" "http://www.w3.org/Graphics/SVG/1.1/DTD/svg11.dtd">
<svg version="1.1" id="Слой_1" xmlns="http://www.w3.org/2000/svg" xmlns:xlink="http://www.w3.org/1999/xlink" x="0px" y="0px"
	 viewBox="0 0 191.4 36" enable-background="new 0 0 191.4 36" xml:space="preserve">
<path fill="#1B1C1A" d="M21.8,11.8c3.5,1.7,5,6,3.3,9.5c-1.2,2.3-3.5,3.8-6.2,4l-2.3,10.6c9.2,1,17.7-5,19.6-14
	C38.1,12.9,32.8,4,24,1.2L21.8,11.8z"/>
<path fill="#76B060" d="M13.1,35.1l2.3-10.6c-3.5-1.8-5-6-3.2-9.6c1.2-2.3,3.5-3.8,6.1-3.9l2.3-10.6c-9.2-1-17.6,5-19.5,14
	C-0.9,23.4,4.3,32.3,13.1,35.1L13.1,35.1z"/>
<g enable-background="new    ">
	<path fill="#0D0F0F" d="M50.1,24.2h-1.8V9h1.8v5.2c1.3-0.5,2.5-0.8,3.6-0.8c1.6,0,2.6,0.4,3.2,1.1c0.5,0.7,0.8,2.1,0.8,4.1v5.6
		h-1.8v-5.5c0-1.5-0.2-2.5-0.5-3c-0.3-0.5-1-0.8-2-0.8c-1,0-1.9,0.2-2.9,0.5l-0.4,0.2L50.1,24.2L50.1,24.2z"/>
	<path fill="#0D0F0F" d="M60.5,18.9c0-1.9,0.4-3.3,1.2-4.2s2.1-1.3,3.9-1.3c1.8,0,3.1,0.4,3.9,1.3c0.8,0.9,1.1,2.3,1.1,4.2
		s-0.4,3.3-1.1,4.2s-2,1.3-3.9,1.3s-3.2-0.4-3.9-1.3C60.8,22.2,60.5,20.8,60.5,18.9z M62.2,18.8c0,1.6,0.2,2.6,0.6,3.3
		s1.3,0.9,2.6,0.9c1.3,0,2.2-0.3,2.6-0.9s0.6-1.7,0.6-3.3s-0.2-2.6-0.7-3.2s-1.3-0.9-2.5-0.9c-1.2,0-2.1,0.3-2.5,0.9
		S62.2,17.3,62.2,18.8z"/>
	<path fill="#0D0F0F" d="M77.1,14.8c-1.7,0-2.6,0.5-2.6,1.6c0,0.5,0.2,0.8,0.6,1.1c0.4,0.2,1.3,0.4,2.7,0.6s2.4,0.5,3,0.9
		s0.9,1.1,0.9,2.2c0,1.1-0.4,1.9-1.2,2.4c-0.8,0.5-1.9,0.7-3.4,0.7c-1,0-2.1-0.1-3.4-0.3l-0.7-0.1l0.1-1.4c1.8,0.2,3.1,0.4,4,0.4
		c0.9,0,1.6-0.1,2.1-0.4s0.7-0.7,0.7-1.3c0-0.6-0.2-1-0.6-1.2c-0.4-0.2-1.3-0.4-2.7-0.6c-1.4-0.2-2.3-0.5-2.9-0.9
		c-0.6-0.4-0.9-1.1-0.9-2.1s0.4-1.8,1.2-2.3c0.8-0.5,1.8-0.7,3-0.7c1,0,2.2,0.1,3.6,0.3l0.7,0.1l-0.1,1.4
		C79.5,14.9,78.1,14.8,77.1,14.8z"/>
	<path fill="#0D0F0F" d="M90.4,15h-3.8V20c0,1.2,0.1,2,0.3,2.4c0.2,0.4,0.7,0.6,1.4,0.6l2.1-0.1l0.1,1.3c-1.1,0.2-1.8,0.2-2.4,0.2
		c-1.2,0-2.1-0.3-2.5-0.8c-0.5-0.5-0.7-1.6-0.7-3.1V15h-1.7v-1.4h1.7v-3.2h1.8v3.2h3.8V15L90.4,15z"/>
	<path fill="#0D0F0F" d="M92.6,11.2V9.4h1.8v1.8H92.6z M92.6,24.2V13.6h1.8v10.6H92.6z"/>
	<path fill="#0D0F0F" d="M99.5,24.2h-1.8V13.6h1.8v0.7c1.3-0.6,2.5-1,3.7-1c1.6,0,2.6,0.4,3.2,1.1s0.8,2.1,0.8,4.1v5.6h-1.8v-5.5
		c0-1.5-0.2-2.5-0.5-3c-0.3-0.5-1-0.8-2.1-0.8c-0.5,0-1,0.1-1.6,0.2c-0.6,0.1-1,0.2-1.3,0.4l-0.4,0.2L99.5,24.2L99.5,24.2z"/>
	<path fill="#0D0F0F" d="M115,29.1c-1.9,0-3.2-0.2-3.9-0.7c-0.8-0.5-1.1-1.3-1.1-2.5c0-0.6,0.1-1.1,0.4-1.4s0.8-0.8,1.4-1.2
		c-0.4-0.3-0.7-0.7-0.7-1.5c0-0.2,0.2-0.7,0.6-1.3l0.2-0.3c-1.3-0.5-1.8-1.6-1.8-3.2c0-2.4,1.5-3.6,4.4-3.6c0.8,0,1.4,0.1,2.1,0.2
		l0.3,0.1l3.5-0.1v1.4l-2.2,0c0.5,0.5,0.8,1.2,0.8,2.1c0,1.3-0.4,2.3-1.1,2.8c-0.7,0.5-1.9,0.8-3.4,0.8c-0.4,0-0.8,0-1.2-0.1
		c-0.3,0.6-0.4,1-0.4,1.2c0,0.4,0.2,0.7,0.4,0.8c0.3,0.1,1.2,0.2,2.7,0.2c1.5,0,2.6,0.2,3.3,0.6c0.7,0.4,1,1.2,1,2.5
		C120.2,28,118.5,29.1,115,29.1z M111.7,25.8c0,0.7,0.2,1.3,0.7,1.6s1.3,0.4,2.6,0.4c1.3,0,2.2-0.2,2.7-0.5s0.8-0.8,0.8-1.6
		s-0.2-1.2-0.6-1.4c-0.4-0.2-1.2-0.3-2.3-0.3l-2.5-0.1c-0.5,0.3-0.9,0.6-1,0.9C111.7,25.1,111.7,25.4,111.7,25.8z M111.8,17
		c0,0.8,0.2,1.4,0.6,1.8c0.4,0.3,1.1,0.5,2.1,0.5c1,0,1.6-0.2,2.1-0.5c0.4-0.3,0.6-1,0.6-1.8c0-0.8-0.2-1.4-0.6-1.8
		c-0.4-0.3-1.1-0.5-2.1-0.5c-1,0-1.7,0.2-2.1,0.5C112,15.6,111.8,16.2,111.8,17z"/>
	<path fill="#0D0F0F" d="M131.4,14.8c-1.7,0-2.6,0.5-2.6,1.6c0,0.5,0.2,0.8,0.6,1.1c0.4,0.2,1.3,0.4,2.7,0.6c1.4,0.2,2.4,0.5,3,0.9
		s0.9,1.1,0.9,2.2c0,1.1-0.4,1.9-1.2,2.4c-0.8,0.5-1.9,0.7-3.4,0.7c-1,0-2.1-0.1-3.4-0.3l-0.7-0.1l0.1-1.4c1.8,0.2,3.1,0.4,4,0.4
		s1.6-0.1,2.1-0.4c0.5-0.2,0.7-0.7,0.7-1.3c0-0.6-0.2-1-0.6-1.2c-0.4-0.2-1.3-0.4-2.7-0.6c-1.4-0.2-2.3-0.5-2.9-0.9
		c-0.6-0.4-0.9-1.1-0.9-2.1s0.4-1.8,1.2-2.3c0.8-0.5,1.8-0.7,3-0.7c1,0,2.2,0.1,3.6,0.3l0.7,0.1l-0.1,1.4
		C133.8,14.9,132.4,14.8,131.4,14.8z"/>
	<path fill="#0D0F0F" d="M146.7,22.9l0.7-0.1l0.1,1.2c-1.8,0.2-3.3,0.3-4.6,0.3c-1.7,0-2.9-0.4-3.6-1.3c-0.7-0.9-1.1-2.3-1.1-4.1
		c0-3.7,1.6-5.6,4.9-5.6c1.6,0,2.8,0.4,3.6,1.2c0.8,0.8,1.2,2,1.2,3.8l-0.1,1.2H140c0,1.2,0.3,2,0.7,2.6c0.5,0.6,1.3,0.8,2.5,0.8
		C144.3,23,145.5,22.9,146.7,22.9z M146,18.3c0-1.3-0.2-2.2-0.7-2.8c-0.5-0.5-1.2-0.8-2.3-0.8c-1,0-1.8,0.3-2.3,0.8
		c-0.5,0.6-0.8,1.5-0.8,2.7L146,18.3L146,18.3z"/>
	<path fill="#0D0F0F" d="M158.9,16.8v5.4c0.1,0.5,0.5,0.8,1.4,0.9l-0.1,1.2c-1.3,0-2.2-0.3-2.8-0.8c-1.4,0.6-2.8,0.8-4.3,0.8
		c-1.1,0-1.9-0.3-2.5-0.8c-0.6-0.6-0.8-1.3-0.8-2.4c0-1,0.3-1.8,0.9-2.3c0.6-0.5,1.5-0.8,2.7-0.9l3.7-0.3v-0.9
		c0-0.7-0.2-1.2-0.5-1.6s-0.8-0.5-1.4-0.5c-1.3,0-2.6,0.1-3.9,0.2l-0.7,0.1l-0.1-1.2c1.7-0.3,3.3-0.5,4.6-0.5s2.3,0.3,2.9,0.8
		C158.6,14.8,158.9,15.6,158.9,16.8z M151.6,21.1c0,1.3,0.6,2,1.8,2c1.1,0,2.1-0.2,3.2-0.5l0.5-0.2v-3.5l-3.5,0.3
		c-0.7,0.1-1.2,0.2-1.5,0.6C151.8,20.1,151.6,20.5,151.6,21.1z"/>
	<path fill="#0D0F0F" d="M162.4,24.2V13.6h1.8V15c1.4-0.8,2.8-1.4,4.3-1.7v1.6c-0.7,0.1-1.3,0.3-2.1,0.5c-0.7,0.2-1.3,0.5-1.6,0.6
		l-0.6,0.3v7.8L162.4,24.2L162.4,24.2z"/>
	<path fill="#0D0F0F" d="M174.7,13.4c0.5,0,1.4,0.1,2.6,0.2l0.6,0.1l-0.1,1.3c-1.3-0.1-2.2-0.2-2.8-0.2c-1.3,0-2.3,0.3-2.7,0.9
		c-0.5,0.6-0.7,1.6-0.7,3.2c0,1.6,0.2,2.6,0.7,3.2c0.4,0.6,1.4,0.9,2.8,0.9l2.8-0.2l0.1,1.3c-1.4,0.2-2.5,0.3-3.3,0.3
		c-1.8,0-3.1-0.4-3.8-1.3c-0.7-0.8-1.1-2.3-1.1-4.3s0.4-3.4,1.1-4.2C171.7,13.8,172.9,13.4,174.7,13.4z"/>
	<path fill="#0D0F0F" d="M182.3,24.2h-1.8V9h1.8v5.2c1.3-0.5,2.5-0.8,3.6-0.8c1.6,0,2.6,0.4,3.2,1.1c0.5,0.8,0.8,2.1,0.8,4.1v5.6
		h-1.8v-5.5c0-1.5-0.2-2.5-0.5-3c-0.3-0.5-1-0.8-2-0.8c-1,0-1.9,0.2-2.9,0.5l-0.4,0.2L182.3,24.2L182.3,24.2z"/>
</g>
</svg>
