<?xml version="1.0" standalone="no"?>
<!DOCTYPE svg PUBLIC "-//W3C//DTD SVG 20010904//EN"
 "http://www.w3.org/TR/2001/REC-SVG-20010904/DTD/svg10.dtd">
<svg version="1.0" xmlns="http://www.w3.org/2000/svg"
 width="200.000000pt" height="35.000000pt" viewBox="0 0 200.000000 35.000000"
 preserveAspectRatio="xMidYMid meet">

<g transform="translate(0.000000,35.000000) scale(0.100000,-0.100000)"
fill="#000000" stroke="none">
<path d="M226 334 c-12 -32 -6 -44 23 -44 28 0 41 14 41 46 0 20 -56 18 -64
-2z"/>
<path d="M1565 338 c-14 -46 -67 -320 -62 -324 4 -4 37 -9 74 -11 78 -5 121
14 148 66 19 37 30 111 21 145 -8 31 -61 49 -106 36 -34 -10 -36 -3 -21 63 9
36 8 37 -20 37 -16 0 -31 -6 -34 -12z m118 -191 c-2 -69 -23 -97 -73 -97 -35
0 -40 3 -40 23 0 19 13 77 25 115 3 9 19 12 47 10 l43 -3 -2 -48z"/>
<path d="M83 298 c-12 -6 -23 -19 -26 -29 -3 -11 -14 -19 -26 -19 -12 0 -21
-4 -21 -9 0 -5 -3 -16 -6 -25 -4 -12 0 -16 15 -16 12 0 21 -2 21 -4 0 -2 -7
-38 -16 -81 -15 -72 -15 -78 2 -96 24 -27 99 -27 114 0 16 32 12 37 -25 33
-33 -4 -35 -3 -35 27 0 18 5 52 11 77 11 42 13 44 49 44 25 0 40 5 44 16 11
29 6 34 -34 34 -39 0 -39 1 -33 30 6 32 1 35 -34 18z"/>
<path d="M366 249 c-27 -4 -52 -11 -56 -16 -7 -7 -50 -195 -50 -216 0 -4 13
-7 28 -7 27 0 28 3 47 93 l20 92 38 3 c48 4 51 -6 32 -97 -19 -93 -20 -91 13
-91 27 0 28 2 47 95 l18 95 39 0 c22 0 41 -5 44 -13 2 -7 -2 -46 -11 -86 -19
-93 -20 -91 13 -91 27 0 28 3 46 90 10 50 15 101 12 115 -8 32 -58 46 -120 34
-28 -5 -56 -5 -72 1 -14 6 -28 9 -32 9 -4 -1 -29 -5 -56 -10z"/>
<path d="M772 250 c-64 -15 -104 -73 -106 -157 -1 -65 15 -84 81 -90 58 -6
103 10 103 35 0 16 -6 18 -53 14 -56 -4 -85 12 -73 43 4 12 23 15 80 15 41 0
78 5 81 10 14 22 10 99 -5 113 -20 19 -67 26 -108 17z m66 -67 c3 -21 0 -23
-47 -23 -56 0 -60 4 -34 32 24 27 77 21 81 -9z"/>
<path d="M1378 253 c-57 -9 -108 -90 -108 -172 0 -48 38 -81 92 -81 66 0 88 9
88 35 0 21 -3 22 -45 17 -49 -5 -75 8 -75 39 0 17 8 19 79 19 89 0 91 2 91 75
0 32 -5 47 -17 53 -25 13 -73 20 -105 15z m70 -70 c3 -21 0 -23 -47 -23 -54 0
-62 8 -35 35 25 24 78 16 82 -12z"/>
<path d="M210 247 c0 -2 -11 -55 -25 -117 -14 -62 -25 -115 -25 -117 0 -1 14
-3 30 -3 17 0 30 2 30 5 0 8 40 197 46 218 4 13 -1 17 -25 17 -17 0 -31 -2
-31 -3z"/>
<path d="M914 203 c3 -27 9 -81 12 -120 l7 -73 38 0 c38 0 39 1 78 77 l40 78
1 -77 0 -78 39 0 c29 0 42 6 54 23 21 32 117 206 117 212 0 3 -12 5 -27 5 -25
0 -33 -10 -73 -85 -24 -47 -48 -85 -52 -85 -4 0 -8 37 -10 83 -3 81 -3 82 -30
85 -25 3 -31 -3 -70 -82 -23 -47 -46 -86 -50 -86 -5 0 -8 21 -8 48 0 26 -3 64
-6 85 -6 33 -10 37 -37 37 -30 0 -30 0 -23 -47z"/>
<path d="M1826 232 c-3 -5 2 -18 10 -28 9 -10 13 -13 9 -6 -3 6 -1 12 4 12 6
0 11 -6 11 -12 0 -7 13 -20 29 -29 30 -17 46 -55 29 -66 -7 -3 -8 -1 -4 5 12
19 -4 14 -35 -12 -15 -13 -25 -27 -21 -30 3 -4 -1 -4 -10 -1 -9 4 -19 2 -23
-4 -3 -6 -1 -11 5 -11 6 0 8 -5 4 -11 -4 -8 0 -7 15 1 12 6 25 18 28 26 3 7 9
11 14 8 5 -3 20 7 35 21 14 14 30 22 36 19 7 -4 8 -2 4 4 -5 8 1 12 14 12 12
0 18 5 15 10 -4 6 -10 8 -15 5 -4 -3 -10 -2 -12 3 -1 4 -19 20 -39 35 -28 21
-38 24 -48 14 -10 -9 -12 -9 -9 1 4 16 -38 47 -46 34z"/>
</g>
</svg>
